{
  "accessors": [
    {
      "bufferView": 2,
      "componentType": 5126,
      "count": 1808,
      "max": [
        0.1647857129573822,
        0.1875724494457245,
        0.07376381009817123
      ],
      "min": [
        -0.1647857129573822,
        -0.09676577895879745,
        -0.07376713305711746
      ],
      "type": "VEC3"
    },
    {
      "bufferView": 2,
      "byteOffset": 21696,
      "componentType": 5126,
      "count": 1808,
      "max": [
        0.999879777431488,
        0.9997397661209106,
        0.9997603893280029
      ],
      "min": [
        -0.999879777431488,
        -0.9989355802536011,
        -0.9997608661651611
      ],
      "type": "VEC3"
    },
    {
      "bufferView": 3,
      "componentType": 5126,
      "count": 1808,
      "max": [
        0.9989269971847534,
        0.9982962012290955,
        1.0,
        1.0
      ],
      "min": [
        -0.9989270567893982,
        -0.9999887943267822,
        -1.0,
        -1.0
      ],
      "type": "VEC4"
    },
    {
      "bufferView": 1,
      "componentType": 5126,
      "count": 1808,
      "max": [
        1.9849789142608643,
        0.9844775795936584
      ],
      "min": [
        0.014974832534790039,
        0.010893553495407104
      ],
      "type": "VEC2"
    },
    {
      "bufferView": 0,
      "componentType": 5125,
      "count": 9024,
      "type": "SCALAR"
    },
    {
      "bufferView": 2,
      "byteOffset": 43392,
      "componentType": 5126,
      "count": 1300,
      "max": [
        0.15147359669208527,
        0.09747068583965302,
        0.14581719040870667
      ],
      "min": [
        -0.1622302532196045,
        -0.24913635849952698,
        0.00412498414516449
      ],
      "type": "VEC3"
    },
    {
      "bufferView": 2,
      "byteOffset": 58992,
      "componentType": 5126,
      "count": 1300,
      "max": [
        0.999993085861206,
        0.9971276521682739,
        1.0
      ],
      "min": [
        -0.999993085861206,
        -0.9999927878379822,
        -1.0
      ],
      "type": "VEC3"
    },
    {
      "bufferView": 3,
      "byteOffset": 28928,
      "componentType": 5126,
      "count": 1300,
      "max": [
        0.9983115792274475,
        0.999609112739563,
        0.9999933242797852,
        1.0
      ],
      "min": [
        -0.9510583877563477,
        -0.9996091723442078,
        -0.9999933838844299,
        -1.0
      ],
      "type": "VEC4"
    },
    {
      "bufferView": 1,
      "byteOffset": 14464,
      "componentType": 5126,
      "count": 1300,
      "max": [
        1.9447224140167236,
        0.9853287935256958
      ],
      "min": [
        0.018773406744003296,
        0.4884442687034607
      ],
      "type": "VEC2"
    },
    {
      "bufferView": 0,
      "byteOffset": 36096,
      "componentType": 5125,
      "count": 6204,
      "type": "SCALAR"
    },
    {
      "bufferView": 2,
      "byteOffset": 74592,
      "componentType": 5126,
      "count": 1584,
      "max": [
        0.16399018466472626,
        0.11375728994607925,
        0.0678357258439064
      ],
      "min": [
        -0.16399018466472626,
        -0.050000883638858795,
        -0.06751398742198944
      ],
      "type": "VEC3"
    },
    {
      "bufferView": 2,
      "byteOffset": 93600,
      "componentType": 5126,
      "count": 1584,
      "max": [
        0.9871789216995239,
        0.9872171878814697,
        1.0
      ],
      "min": [
        -0.9871788620948792,
        -0.9589400291442871,
        -1.0
      ],
      "type": "VEC3"
    },
    {
      "bufferView": 3,
      "byteOffset": 49728,
      "componentType": 5126,
      "count": 1584,
      "max": [
        0.9872171878814697,
        0.9985644817352295,
        0.944189727306366,
        1.0
      ],
      "min": [
        -0.9872171878814697,
        -0.9782932996749878,
        -0.9997701644897461,
        -1.0
      ],
      "type": "VEC4"
    },
    {
      "bufferView": 1,
      "byteOffset": 24864,
      "componentType": 5126,
      "count": 1584,
      "max": [
        1.9419410228729248,
        0.8304446339607239
      ],
      "min": [
        0.008323192596435547,
        0.020377039909362793
      ],
      "type": "VEC2"
    },
    {
      "bufferView": 0,
      "byteOffset": 60912,
      "componentType": 5125,
      "count": 6240,
      "type": "SCALAR"
    }
  ],
  "asset": {
    "extras": {
      "author": "Constantine (https://sketchfab.com/byezif)",
      "license": "CC-BY-4.0 (http://creativecommons.org/licenses/by/4.0/)",
      "source": "https://sketchfab.com/3d-models/headphones-free-613bee00bd624ebe9592061d1b09520b",
      "title": "Headphones free ;^)"
    },
    "generator": "Sketchfab-12.66.0",
    "version": "2.0"
  },
  "bufferViews": [
    {
      "buffer": 0,
      "byteLength": 85872,
      "name": "floatBufferViews",
      "target": 34963
    },
    {
      "buffer": 0,
      "byteLength": 37536,
      "byteOffset": 85872,
      "byteStride": 8,
      "name": "floatBufferViews",
      "target": 34962
    },
    {
      "buffer": 0,
      "byteLength": 112608,
      "byteOffset": 123408,
      "byteStride": 12,
      "name": "floatBufferViews",
      "target": 34962
    },
    {
      "buffer": 0,
      "byteLength": 75072,
      "byteOffset": 236016,
      "byteStride": 16,
      "name": "floatBufferViews",
      "target": 34962
    }
  ],
  "buffers": [
    {
      "byteLength": 311088,
      "uri": "scene.bin"
    }
  ],
  "images": [
    {
      "uri": "textures/DefaultMaterial_baseColor.jpeg"
    },
    {
      "uri": "textures/DefaultMaterial_metallicRoughness.png"
    },
    {
      "uri": "textures/DefaultMaterial_normal.png"
    }
  ],
  "materials": [
    {
      "doubleSided": true,
      "name": "DefaultMaterial",
      "normalTexture": {
        "index": 2
      },
      "occlusionTexture": {
        "index": 1
      },
      "pbrMetallicRoughness": {
        "baseColorTexture": {
          "index": 0
        },
        "metallicRoughnessTexture": {
          "index": 1
        }
      }
    }
  ],
  "meshes": [
    {
      "name": "003_headfones_low_DefaultMaterial_0",
      "primitives": [
        {
          "attributes": {
            "NORMAL": 1,
            "POSITION": 0,
            "TANGENT": 2,
            "TEXCOORD_0": 3
          },
          "indices": 4,
          "material": 0,
          "mode": 4
        }
      ]
    },
    {
      "name": "001_headfones_low_DefaultMaterial_0",
      "primitives": [
        {
          "attributes": {
            "NORMAL": 6,
            "POSITION": 5,
            "TANGENT": 7,
            "TEXCOORD_0": 8
          },
          "indices": 9,
          "material": 0,
          "mode": 4
        }
      ]
    },
    {
      "name": "002_headfones_low_DefaultMaterial_0",
      "primitives": [
        {
          "attributes": {
            "NORMAL": 11,
            "POSITION": 10,
            "TANGENT": 12,
            "TEXCOORD_0": 13
          },
          "indices": 14,
          "material": 0,
          "mode": 4
        }
      ]
    }
  ],
  "nodes": [
    {
      "children": [
        1
      ],
      "matrix": [
        1.0,
        0.0,
        0.0,
        0.0,
        0.0,
        2.220446049250313e-16,
        -1.0,
        0.0,
        0.0,
        1.0,
        2.220446049250313e-16,
        0.0,
        0.0,
        0.0,
        0.0,
        1.0
      ],
      "name": "Sketchfab_model"
    },
    {
      "children": [
        2
      ],
      "matrix": [
        1.0,
        0.0,
        0.0,
        0.0,
        0.0,
        0.0,
        1.0,
        0.0,
        0.0,
        -1.0,
        0.0,
        0.0,
        0.0,
        0.0,
        0.0,
        1.0
      ],
      "name": "model.fbx"
    },
    {
      "children": [
        3,
        5,
        8,
        10,
        12
      ],
      "name": "RootNode"
    },
    {
      "children": [
        4
      ],
      "matrix": [
        -65.15583280329096,
        -44.52713576570858,
        -61.41703047373549,
        0.0,
        -32.40134137821245,
        89.53957451233616,
        -30.542088974418615,
        0.0,
        68.59205472129975,
        -1.0718647115348782e-05,
        -72.7676336239627,
        0.0,
        735.88916015625,
        495.8309326171875,
        692.5791015625,
        1.0
      ],
      "name": "Camera"
    },
    {
      "name": "Object_4"
    },
    {
      "children": [
        6
      ],
      "matrix": [
        -29.08647719990347,
        -5.518906457566863,
        -95.51711910171437,
        0.0,
        56.63930913109449,
        79.46723428563203,
        -21.83912397841966,
        0.0,
        77.11008775993375,
        -60.45246356562044,
        -19.98834696773717,
        0.0,
        407.6245422363281,
        590.38623046875,
        -100.54539489746094,
        1.0
      ],
      "name": "Light"
    },
    {
      "children": [
        7
      ],
      "matrix": [
        1.0,
        0.0,
        0.0,
        0.0,
        0.0,
        2.220446049250313e-16,
        1.0,
        0.0,
        0.0,
        -1.0,
        2.220446049250313e-16,
        0.0,
        0.0,
        0.0,
        0.0,
        1.0
      ],
      "name": "Object_6"
    },
    {
      "name": "Object_7"
    },
    {
      "children": [
        9
      ],
      "matrix": [
        100.0,
        0.0,
        0.0,
        0.0,
        -0.0,
        -1.629206793918314e-05,
        -99.99999999999868,
        0.0,
        0.0,
        99.99999999999868,
        -1.629206793918314e-05,
        0.0,
        -0.5527462959289551,
        7.4971089363098145,
        20.093914031982422,
        1.0
      ],
      "name": "003_headfones_low"
    },
    {
      "mesh": 0,
      "name": "003_headfones_low_DefaultMaterial_0"
    },
    {
      "children": [
        11
      ],
      "matrix": [
        100.0,
        0.0,
        0.0,
        0.0,
        0.0,
        -1.629206793918314e-05,
        -99.99999999999868,
        0.0,
        0.0,
        99.99999999999868,
        -1.629206793918314e-05,
        0.0,
        0.0,
        0.0,
        0.0,
        1.0
      ],
      "name": "001_headfones_low"
    },
    {
      "mesh": 1,
      "name": "001_headfones_low_DefaultMaterial_0"
    },
    {
      "children": [
        13
      ],
      "matrix": [
        100.0,
        0.0,
        0.0,
        0.0,
        -0.0,
        -1.629206793918314e-05,
        -99.99999999999868,
        0.0,
        0.0,
        99.99999999999868,
        -1.629206793918314e-05,
        0.0,
        -0.5527462959289551,
        7.4971089363098145,
        20.093914031982422,
        1.0
      ],
      "name": "002_headfones_low"
    },
    {
      "mesh": 2,
      "name": "002_headfones_low_DefaultMaterial_0"
    }
  ],
  "samplers": [
    {
      "magFilter": 9729,
      "minFilter": 9987,
      "wrapS": 10497,
      "wrapT": 10497
    }
  ],
  "scene": 0,
  "scenes": [
    {
      "name": "Sketchfab_Scene",
      "nodes": [
        0
      ]
    }
  ],
  "textures": [
    {
      "sampler": 0,
      "source": 0
    },
    {
      "sampler": 0,
      "source": 1
    },
    {
      "sampler": 0,
      "source": 2
    }
  ]
}
